<svg width="30" height="30" viewBox="0 0 30 30" fill="none" xmlns="http://www.w3.org/2000/svg">
<path d="M15 30C6.7155 30 0 23.2845 0 15C0 6.7155 6.7155 0 15 0C23.2845 0 30 6.7155 30 15C30 23.2845 23.2845 30 15 30ZM15 27C18.1826 27 21.2348 25.7357 23.4853 23.4853C25.7357 21.2348 27 18.1826 27 15C27 11.8174 25.7357 8.76515 23.4853 6.51472C21.2348 4.26428 18.1826 3 15 3C11.8174 3 8.76515 4.26428 6.51472 6.51472C4.26428 8.76515 3 11.8174 3 15C3 18.1826 4.26428 21.2348 6.51472 23.4853C8.76515 25.7357 11.8174 27 15 27ZM15 22.5C13.0109 22.5 11.1032 21.7098 9.6967 20.3033C8.29018 18.8968 7.5 16.9891 7.5 15C7.5 13.0109 8.29018 11.1032 9.6967 9.6967C11.1032 8.29018 13.0109 7.5 15 7.5C16.9891 7.5 18.8968 8.29018 20.3033 9.6967C21.7098 11.1032 22.5 13.0109 22.5 15C22.5 16.9891 21.7098 18.8968 20.3033 20.3033C18.8968 21.7098 16.9891 22.5 15 22.5Z" fill="#2B2B2B"/>
</svg>
